<!-- SVG icon for GitHub PR Conversation Reverser -->
<svg width="128" height="128" viewBox="0 0 128 128" xmlns="http://www.w3.org/2000/svg">
  <!-- Background circle -->
  <circle cx="64" cy="64" r="60" fill="#0366d6" stroke="#ffffff" stroke-width="2"/>
  
  <!-- Document/conversation representation -->
  <rect x="32" y="25" width="64" height="78" rx="4" fill="#ffffff"/>
  
  <!-- Conversation lines (representing comments) -->
  <rect x="38" y="35" width="40" height="3" rx="1.5" fill="#0366d6"/>
  <rect x="38" y="42" width="52" height="3" rx="1.5" fill="#0366d6"/>
  <rect x="38" y="49" width="35" height="3" rx="1.5" fill="#0366d6"/>
  
  <rect x="38" y="60" width="45" height="3" rx="1.5" fill="#0366d6"/>
  <rect x="38" y="67" width="38" height="3" rx="1.5" fill="#0366d6"/>
  <rect x="38" y="74" width="50" height="3" rx="1.5" fill="#0366d6"/>
  
  <rect x="38" y="85" width="42" height="3" rx="1.5" fill="#0366d6"/>
  <rect x="38" y="92" width="48" height="3" rx="1.5" fill="#0366d6"/>
  
  <!-- Arrow indicating reversal -->
  <path d="M105 45 L115 55 L105 65 M115 55 L85 55" stroke="#ffffff" stroke-width="3" fill="none" stroke-linecap="round" stroke-linejoin="round"/>
  <path d="M85 75 L75 85 L85 95 M75 85 L105 85" stroke="#ffffff" stroke-width="3" fill="none" stroke-linecap="round" stroke-linejoin="round"/>
</svg>
